#!OML:ASF H:\Not Pregnant\Project 1\Capture day 1\Session 1\non-pregnant.ASF
:FULLY-SPECIFIED
:DEGREES
513
root -5.42479 16.2176 34.7972 -178.936 -80.708 -171.772
lowerback -8.39151 1.98512 -0.187358
upperback -7.1699 2.33576 -0.101912
thorax -2.73485 1.04243 0.14161
lowerneck 12.1352 -6.78389 -31.045
upperneck -7.57765 -14.4573 43.7267
head 2.3861 -9.53861 23.8077
rclavicle -4.4975e-015 4.96962e-015
rhumerus -42.6587 -1.74582 -86.1742
rradius 27.8909
rwrist 22.659
rhand -9.54945 2.35988
rfingers 7.12502
rthumb 16.4175 -26.9654
lclavicle -4.4975e-015 4.96962e-015
lhumerus -46.4097 1.06113 84.6517
lradius 34.1709
lwrist 56.7454
lhand 13.1859 -10.9155
lfingers 7.12502
lthumb 38.1414 14.8451
rfemur -12.3739 -9.27733 19.4447
rtibia 16.3056
rfoot -17.3374 17.434
rtoes -10.4545
lfemur -11.1523 3.38337 -18.8829
ltibia 12.8174
lfoot -11.7256 -0.196176
ltoes -21.7303
514
root -5.4313 16.2184 34.7998 -179.019 -80.6445 -171.658
lowerback -8.44731 2.02312 -0.168523
upperback -7.17138 2.38404 -0.113099
thorax -2.70469 1.06519 0.124205
lowerneck 12.1683 -6.7899 -31.0644
upperneck -7.5945 -14.4815 43.7508
head 2.3924 -9.55745 23.833
rclavicle -2.93207e-014 -9.74045e-015
rhumerus -42.5931 -1.87358 -86.0672
rradius 27.8836
rwrist 22.6399
rhand -9.57057 2.34043
rfingers 7.12502
rthumb 16.3971 -26.9865
lclavicle -2.93207e-014 -9.74045e-015
lhumerus -46.4032 1.08583 84.6603
lradius 34.1053
lwrist 56.7734
lhand 13.5942 -10.8178
lfingers 7.12502
lthumb 38.5268 14.8361
rfemur -12.3614 -9.27965 19.4644
rtibia 16.2418
rfoot -17.3195 17.4936
rtoes -10.4559
lfemur -11.1516 3.49092 -18.8748
ltibia 12.8081
lfoot -11.7517 -0.241985
ltoes -21.702
515
root -5.43819 16.2192 34.803 -179.086 -80.5743 -171.562
lowerback -8.50713 2.05722 -0.150992
upperback -7.17123 2.42724 -0.120047
thorax -2.6708 1.08557 0.111845
lowerneck 12.1961 -6.79232 -31.1001
upperneck -7.60493 -14.5029 43.773
head 2.4017 -9.57387 23.8626
rclavicle 8.44835e-016 7.35503e-015
rhumerus -42.535 -1.9238 -85.9912
rradius 27.8955
rwrist 22.6152
rhand -9.57104 2.32227
rfingers 7.12502
rthumb 16.3967 -27.0047
lclavicle 8.44835e-016 7.35503e-015
lhumerus -46.406 1.06751 84.715
lradius 34.0306
lwrist 56.6956
lhand 13.906 -10.8091
lfingers 7.12502
lthumb 38.8209 14.762
rfemur -12.3436 -9.29014 19.4795
rtibia 16.169
rfoot -17.305 17.5639
rtoes -10.4805
lfemur -11.1529 3.59057 -18.871
ltibia 12.809
lfoot -11.7809 -0.278646
ltoes -21.6292
516
root -5.44498 16.22 34.8065 -179.151 -80.5104 -171.465
lowerback -8.56644 2.09327 -0.120117
upperback -7.17257 2.47204 -0.136011
thorax -2.63773 1.10598 0.0828722
lowerneck 12.228 -6.79268 -31.1266
upperneck -7.61502 -14.5213 43.7972
head 2.40803 -9.58963 23.8927
rclavicle -8.92046e-015 -1.51076e-014
rhumerus -42.4902 -1.85285 -85.9975
rradius 27.9379
rwrist 22.4894
rhand -9.57817 2.27665
rfingers 7.12502
rthumb 16.3898 -27.0509
lclavicle -8.92046e-015 -1.51076e-014
lhumerus -46.413 1.00068 84.7989
lradius 33.944
lwrist 56.5204
lhand 14.1238 -10.9052
lfingers 7.12502
lthumb 39.0262 14.6073
rfemur -12.3257 -9.31176 19.4946
rtibia 16.0913
rfoot -17.2932 17.6357
rtoes -10.5276
lfemur -11.1604 3.69325 -18.8696
ltibia 12.8129
lfoot -11.8107 -0.323463
ltoes -21.5527
517
root -5.45172 16.221 34.8106 -179.135 -80.4507 -171.445
lowerback -8.62895 2.12929 -0.0869594
upperback -7.17627 2.51626 -0.165204
thorax -2.60462 1.12563 0.0391
lowerneck 12.2634 -6.79469 -31.1321
upperneck -7.6254 -14.5392 43.8189
head 2.41039 -9.60546 23.9137
rclavicle 2.58917e-014 1.05356e-014
rhumerus -42.4437 -1.8146 -86.0024
rradius 27.9723
rwrist 22.4246
rhand -9.59566 2.24931
rfingers 7.12502
rthumb 16.373 -27.0796
lclavicle 2.58917e-014 1.05356e-014
lhumerus -46.4254 0.890781 84.9041
lradius 33.8497
lwrist 56.2788
lhand 14.2631 -11.0911
lfingers 7.12502
lthumb 39.1576 14.3836
rfemur -12.315 -9.3472 19.4944
rtibia 16.0139
rfoot -17.2767 17.7222
rtoes -10.5468
lfemur -11.1726 3.79387 -18.8854
ltibia 12.8111
lfoot -11.8368 -0.3704
ltoes -21.4821
518
root -5.45857 16.222 34.8151 -179.087 -80.4028 -171.456
lowerback -8.69278 2.16057 -0.0470854
upperback -7.18098 2.55359 -0.200726
thorax -2.57114 1.14138 -0.0152643
lowerneck 12.2953 -6.79786 -31.1143
upperneck -7.63047 -14.5522 43.8292
head 2.40793 -9.61719 23.9172
rclavicle 1.41137e-014 3.97569e-016
rhumerus -42.3956 -1.79766 -86.0082
rradius 28.0008
rwrist 22.3892
rhand -9.62856 2.22813
rfingers 7.12502
rthumb 16.3413 -27.1034
lclavicle 1.41137e-014 3.97569e-016
lhumerus -46.441 0.780033 85.0076
lradius 33.7517
lwrist 56.0351
lhand 14.3878 -11.3054
lfingers 7.12502
lthumb 39.2751 14.1353
rfemur -12.3054 -9.40921 19.4871
rtibia 15.9362
rfoot -17.2638 17.8259
rtoes -10.5482
lfemur -11.1842 3.88871 -18.9101
ltibia 12.801
lfoot -11.86 -0.421011
ltoes -21.4301
519
root -5.4654 16.2233 34.8199 -179.043 -80.3587 -171.457
lowerback -8.76092 2.18974 0.00159105
upperback -7.18924 2.5872 -0.236507
thorax -2.53855 1.15479 -0.0748838
lowerneck 12.3148 -6.80204 -31.066
upperneck -7.62283 -14.5564 43.8204
head 2.40038 -9.62076 23.8943
rclavicle 2.88238e-015 -5.96354e-016
rhumerus -42.3461 -1.8212 -85.9987
rradius 28.0219
rwrist 22.3927
rhand -9.67448 2.21014
rfingers 7.12502
rthumb 16.2971 -27.125
lclavicle 2.88238e-015 -5.96354e-016
lhumerus -46.4563 0.714445 85.068
lradius 33.6687
lwrist 55.9885
lhand 14.6567 -11.3917
lfingers 7.12502
lthumb 39.5284 13.9749
rfemur -12.3041 -9.47173 19.4804
rtibia 15.8608
rfoot -17.2461 17.9342
rtoes -10.5155
lfemur -11.1983 3.98624 -18.9357
ltibia 12.7798
lfoot -11.8776 -0.47548
ltoes -21.4043
520
root -5.47228 16.2248 34.8247 -179.008 -80.3164 -171.444
lowerback -8.83331 2.21691 0.0525408
upperback -7.19902 2.61779 -0.267723
thorax -2.50527 1.16664 -0.131072
lowerneck 12.3217 -6.80635 -31.0054
upperneck -7.60456 -14.5537 43.797
head 2.39111 -9.61759 23.8543
rclavicle 3.22528e-014 4.17448e-015
rhumerus -42.2947 -1.88781 -85.9656
rradius 28.0385
rwrist 22.4315
rhand -9.70666 2.22069
rfingers 7.12502
rthumb 16.2661 -27.117
lclavicle 3.22528e-014 4.17448e-015
lhumerus -46.4668 0.711151 85.0787
lradius 33.6009
lwrist 56.1524
lhand 15.1088 -11.3168
lfingers 7.12502
lthumb 39.954 13.9231
rfemur -12.3077 -9.54313 19.4765
rtibia 15.7854
rfoot -17.2237 18.0577
rtoes -10.4418
lfemur -11.2129 4.08883 -18.9597
ltibia 12.7503
lfoot -11.8926 -0.535959
ltoes -21.393
521
root -5.47928 16.2262 34.8294 -178.956 -80.2714 -171.448
lowerback -8.90788 2.24294 0.0914937
upperback -7.20934 2.64752 -0.292796
thorax -2.47217 1.17865 -0.174162
lowerneck 12.33 -6.80743 -30.9805
upperneck -7.58011 -14.5576 43.7847
head 2.39228 -9.61906 23.8355
rclavicle -3.61788e-014 -8.54774e-015
rhumerus -42.2431 -1.93238 -85.9349
rradius 28.0598
rwrist 22.438
rhand -9.73019 2.22732
rfingers 7.12502
rthumb 16.2435 -27.1122
lclavicle -3.61788e-014 -8.54774e-015
lhumerus -46.4737 0.755599 85.0509
lradius 33.5506
lwrist 56.5244
lhand 15.7265 -11.0822
lfingers 7.12502
lthumb 40.535 13.9802
rfemur -12.3125 -9.60782 19.4697
rtibia 15.7116
rfoot -17.2021 18.1778
rtoes -10.3628
lfemur -11.2244 4.20193 -18.9872
ltibia 12.7146
lfoot -11.9071 -0.602422
ltoes -21.407
522
root -5.48638 16.2277 34.8335 -178.909 -80.2233 -171.447
lowerback -8.98445 2.26728 0.117105
upperback -7.22008 2.6758 -0.307135
thorax -2.43955 1.19067 -0.198719
lowerneck 12.3399 -6.80469 -30.9855
upperneck -7.55052 -14.5637 43.776
head 2.39948 -9.62181 23.8303
rclavicle 1.3418e-014 1.78906e-015
rhumerus -42.1908 -1.95367 -85.9021
rradius 28.0792
rwrist 22.4296
rhand -9.73903 2.25025
rfingers 7.12502
rthumb 16.2349 -27.09
lclavicle 1.3418e-014 1.78906e-015
lhumerus -46.4799 0.847255 84.9946
lradius 33.5136
lwrist 57.0307
lhand 16.4694 -10.7218
lfingers 7.12502
lthumb 41.233 14.12
rfemur -12.3186 -9.66653 19.4655
rtibia 15.6415
rfoot -17.1819 18.2953
rtoes -10.2918
lfemur -11.2318 4.33269 -19.0125
ltibia 12.6729
lfoot -11.922 -0.6826
ltoes -21.4292
